<svg width="50" height="50" viewBox="0 0 50 50" fill="none" xmlns="http://www.w3.org/2000/svg">
<path d="M6.25114 4.97461H43.7511C44.8562 4.97461 45.916 5.4136 46.6974 6.195C47.4788 6.9764 47.9178 8.03621 47.9178 9.14127V42.4746C47.9178 43.5797 47.4788 44.6395 46.6974 45.4209C45.916 46.2023 44.8562 46.6413 43.7511 46.6413H6.25114C5.14607 46.6413 4.08626 46.2023 3.30486 45.4209C2.52346 44.6395 2.08447 43.5797 2.08447 42.4746V9.14127C2.08447 8.03621 2.52346 6.9764 3.30486 6.195C4.08626 5.4136 5.14607 4.97461 6.25114 4.97461ZM27.0845 9.14127V42.4746H43.7511V9.14127H27.0845ZM6.25114 9.14127V42.4746H22.9178V9.14127H6.25114ZM10.4178 27.8913H14.5845V36.2246H10.4178V27.8913ZM10.4178 13.3079H18.7511V16.4329H10.4178V13.3079ZM10.4178 19.5579H18.7511V22.6829H10.4178V19.5579ZM31.2511 27.8913H35.4178V36.2246H31.2511V27.8913ZM31.2511 13.3079H39.5845V16.4329H31.2511V13.3079ZM31.2511 19.5579H39.5845V22.6829H31.2511V19.5579Z" fill="#1573FF"/>
</svg>
