<svg width="50" height="50" viewBox="0 0 50 50" fill="none" xmlns="http://www.w3.org/2000/svg">
<g clip-path="url(#clip0_2322_3461)">
<path d="M32.1527 23.8575C31.9592 23.6639 31.7296 23.5104 31.4768 23.4056C31.224 23.3008 30.9531 23.2468 30.6794 23.2467C30.4058 23.2466 30.1348 23.3004 29.882 23.405C29.6291 23.5096 29.3993 23.663 29.2058 23.8565C29.0122 24.0499 28.8587 24.2795 28.7538 24.5323C28.649 24.7851 28.595 25.056 28.5949 25.3297C28.5949 25.6033 28.6487 25.8743 28.7533 26.1272C28.8579 26.38 29.0113 26.6098 29.2047 26.8033C29.5954 27.1942 30.1253 27.414 30.678 27.4142C31.2306 27.4144 31.7607 27.195 32.1516 26.8044C32.5425 26.4137 32.7623 25.8838 32.7625 25.3312C32.7627 24.7785 32.5433 24.2484 32.1527 23.8575ZM33.6256 19.4388C33.8178 19.2398 34.0476 19.0811 34.3018 18.9719C34.556 18.8627 34.8294 18.8052 35.106 18.8028C35.3826 18.8004 35.6569 18.8531 35.913 18.9579C36.169 19.0626 36.4016 19.2173 36.5972 19.4129C36.7928 19.6085 36.9475 19.8411 37.0523 20.0972C37.157 20.3532 37.2097 20.6275 37.2073 20.9042C37.2049 21.1808 37.1475 21.4542 37.0383 21.7083C36.9291 21.9625 36.7704 22.1924 36.5714 22.3846C36.1785 22.7641 35.6522 22.9741 35.106 22.9693C34.5597 22.9646 34.0372 22.7455 33.651 22.3592C33.2647 21.9729 33.0456 21.4504 33.0408 20.9042C33.0361 20.3579 33.2461 19.8317 33.6256 19.4388ZM40.9902 23.8575C40.798 23.6585 40.5681 23.4998 40.3139 23.3906C40.0597 23.2814 39.7864 23.224 39.5097 23.2216C39.2331 23.2192 38.9588 23.2719 38.7028 23.3766C38.4467 23.4814 38.2141 23.6361 38.0185 23.8317C37.8229 24.0273 37.6682 24.2599 37.5634 24.5159C37.4587 24.772 37.406 25.0463 37.4084 25.3229C37.4108 25.5995 37.4683 25.8729 37.5774 26.1271C37.6866 26.3813 37.8453 26.6111 38.0443 26.8033C38.4372 27.1828 38.9635 27.3928 39.5097 27.3881C40.056 27.3833 40.5785 27.1642 40.9648 26.778C41.351 26.3917 41.5701 25.8692 41.5749 25.3229C41.5796 24.7767 41.3697 24.2504 40.9902 23.8575ZM33.6256 28.2762C33.8191 28.0828 34.0489 27.9294 34.3018 27.8248C34.5546 27.7202 34.8256 27.6664 35.0992 27.6665C35.3729 27.6665 35.6438 27.7205 35.8966 27.8253C36.1494 27.9302 36.379 28.0837 36.5724 28.2773C36.7659 28.4709 36.9193 28.7006 37.0239 28.9535C37.1285 29.2063 37.1823 29.4773 37.1822 29.7509C37.1822 30.0246 37.1282 30.2955 37.0233 30.5483C36.9185 30.8011 36.765 31.0307 36.5714 31.2242C36.1805 31.6148 35.6504 31.8342 35.0978 31.834C34.5451 31.8338 34.0152 31.614 33.6245 31.2231C33.2339 30.8322 33.0145 30.3021 33.0147 29.7495C33.0149 29.1968 33.2347 28.6669 33.6256 28.2762ZM12.4235 27.4137H8.25684V23.2471H12.4235V19.0804H16.5902V23.2471H20.7568V27.4137H16.5902V31.5804H12.4235V27.4137Z" fill="#1573FF"/>
<path fill-rule="evenodd" clip-rule="evenodd" d="M14.5081 10.7461C10.6404 10.7461 6.93107 12.2825 4.19616 15.0175C1.46126 17.7524 -0.0751953 21.4617 -0.0751953 25.3294C-0.0751953 29.1972 1.46126 32.9065 4.19616 35.6414C6.93107 38.3763 10.6404 39.9128 14.5081 39.9128H35.3415C37.2566 39.9128 39.1529 39.5355 40.9223 38.8027C42.6916 38.0698 44.2993 36.9956 45.6534 35.6414C47.0076 34.2872 48.0818 32.6796 48.8147 30.9102C49.5476 29.1409 49.9248 27.2445 49.9248 25.3294C49.9248 23.4143 49.5476 21.518 48.8147 19.7486C48.0818 17.9793 47.0076 16.3716 45.6534 15.0175C44.2993 13.6633 42.6916 12.5891 40.9223 11.8562C39.1529 11.1233 37.2566 10.7461 35.3415 10.7461H14.5081ZM35.3415 14.9128H14.5081C11.7455 14.9128 9.09595 16.0102 7.14244 17.9637C5.18894 19.9172 4.09147 22.5668 4.09147 25.3294C4.09147 28.0921 5.18894 30.7416 7.14244 32.6951C9.09595 34.6486 11.7455 35.7461 14.5081 35.7461H35.3415C38.1041 35.7461 40.7537 34.6486 42.7072 32.6951C44.6607 30.7416 45.7581 28.0921 45.7581 25.3294C45.7581 22.5668 44.6607 19.9172 42.7072 17.9637C40.7537 16.0102 38.1041 14.9128 35.3415 14.9128Z" fill="#1573FF"/>
</g>
<defs>
<clipPath id="clip0_2322_3461">
<rect width="50" height="50" fill="white"/>
</clipPath>
</defs>
</svg>
