<svg width="50" height="50" viewBox="0 0 50 50" fill="none" xmlns="http://www.w3.org/2000/svg">
<path d="M37.75 6.125C39.4076 6.125 40.9973 6.78348 42.1694 7.95558C43.3415 9.12768 44 10.7174 44 12.375V16.8396C44 17.5354 44 17.8833 43.8396 18.1375C43.7564 18.2697 43.6447 18.3814 43.5125 18.4646C43.2583 18.625 42.9104 18.625 42.2146 18.625H31.5M37.75 6.125C36.0924 6.125 34.5027 6.78348 33.3306 7.95558C32.1585 9.12768 31.5 10.7174 31.5 12.375V18.625M37.75 6.125H14.8333C10.9042 6.125 8.94167 6.125 7.72083 7.34583C6.5 8.56667 6.5 10.5292 6.5 14.4583V43.625L12.75 41.5417L19 43.625L25.25 41.5417L31.5 43.625V18.625" stroke="#1573FF" stroke-width="3.41092"/>
<path d="M14.833 14.459H23.1663M16.9163 22.7923H14.833M14.833 31.1256H21.083" stroke="#1573FF" stroke-width="3.41092" stroke-linecap="round"/>
</svg>
