<svg width="50" height="50" viewBox="0 0 50 50" fill="none" xmlns="http://www.w3.org/2000/svg">
<path d="M29.1262 39.5816C29.1262 40.6864 28.6873 41.746 27.9061 42.5272C27.1249 43.3084 26.0653 43.7473 24.9605 43.7473C23.8558 43.7473 22.7962 43.3084 22.015 42.5272C21.2338 41.746 20.7949 40.6864 20.7949 39.5816C20.7949 38.4768 21.2338 37.4173 22.015 36.6361C22.7962 35.8549 23.8558 35.416 24.9605 35.416C26.0653 35.416 27.1249 35.8549 27.9061 36.6361C28.6873 37.4173 29.1262 38.4768 29.1262 39.5816Z" stroke="#1573FF" stroke-width="3.83728" stroke-linecap="round" stroke-linejoin="round"/>
<path d="M4.37554 17.8138C3.64638 16.5367 3.89638 14.9117 5.05992 14.0117C10.087 10.1294 16.7339 7.29297 25.0005 7.29297C33.2682 7.29297 39.9151 10.1284 44.9422 14.0117C46.1057 14.9117 46.3557 16.5378 45.6255 17.8138L44.6026 19.6044C43.6234 21.318 41.3234 21.6961 39.7026 20.5711C35.7464 17.8263 30.7235 15.6263 25.0005 15.6263C19.2787 15.6263 14.2547 17.8263 10.2995 20.5711C8.67763 21.6961 6.37763 21.318 5.3995 19.6044L4.37554 17.8138ZM12.9318 29.293C12.0828 28.019 12.263 26.293 13.4964 25.3867C16.4255 23.2367 19.9724 21.8763 25.0005 21.8763C30.0287 21.8763 33.5766 23.2367 36.5047 25.3867C37.7391 26.293 37.9193 28.019 37.0703 29.293L36.0766 30.7826C35.186 32.1201 33.2974 32.3346 31.912 31.5201C30.0828 30.444 27.6839 29.5388 25.0005 29.5388C22.3172 29.5388 19.9193 30.4451 18.0901 31.5201C16.7047 32.3346 14.8162 32.1201 13.9255 30.7836L12.9318 29.293Z" stroke="#1573FF" stroke-width="3.83728" stroke-linecap="round" stroke-linejoin="round"/>
</svg>
